# xmcd
#
# Track frame offsets: 
#        150
#        15324
#        39626
#        69825
#        89024
#        108393
#        127337
#        145944
#        161929
#        179988
#
# Disc length: 2725 seconds
#
# Revision: 0
# Processed by: cddbd v1.5.1PL2 Copyright (c) Steve Scherf et al.
# Submitted via: ExactAudioCopy v0.95b3
#
DISCID=940aa30a
DTITLE=Tucker Zimmerman - Walking On The Edge Of The Blues
DYEAR=1900
DGENRE=Blues
TTITLE0=Walking On The Edge Of The Blues
TTITLE1=No Mor Running Around
TTITLE2=Nightshift
TTITLE3=Te Law Of The 12 Bar Blues
TTITLE4=Past Crying
TTITLE5=Talking To The Demon
TTITLE6=Highway 101
TTITLE7=Fool For Locomotion
TTITLE8=Shipyard
TTITLE9=Back To The Blues
EXTD=
EXTT0=
EXTT1=
EXTT2=
EXTT3=
EXTT4=
EXTT5=
EXTT6=
EXTT7=
EXTT8=
EXTT9=
PLAYORDER=
